<?xml version="1.0" encoding="UTF-8" standalone="no"?>
<!-- Created with Inkscape (http://www.inkscape.org/) -->

<svg
   width="855.82324mm"
   height="464.6391mm"
   viewBox="0 0 855.82324 464.6391"
   version="1.1"
   id="svg1"
   xml:space="preserve"
   inkscape:version="1.2.1 (9c6d41e410, 2022-07-14)"
   sodipodi:docname="galaxy.svg"
   xmlns:inkscape="http://www.inkscape.org/namespaces/inkscape"
   xmlns:sodipodi="http://sodipodi.sourceforge.net/DTD/sodipodi-0.dtd"
   xmlns="http://www.w3.org/2000/svg"
   xmlns:svg="http://www.w3.org/2000/svg"><sodipodi:namedview
     id="namedview1"
     pagecolor="#ffffff"
     bordercolor="#000000"
     borderopacity="0.25"
     inkscape:showpageshadow="2"
     inkscape:pageopacity="0.0"
     inkscape:pagecheckerboard="0"
     inkscape:deskcolor="#d1d1d1"
     inkscape:document-units="mm"
     inkscape:zoom="0.21102595"
     inkscape:cx="1921.5646"
     inkscape:cy="1383.7161"
     inkscape:window-width="2560"
     inkscape:window-height="1369"
     inkscape:window-x="-8"
     inkscape:window-y="-8"
     inkscape:window-maximized="1"
     inkscape:current-layer="layer2"
     showgrid="false" /><defs
     id="defs1"><marker
       style="overflow:visible"
       id="Arrow5"
       refX="0"
       refY="0"
       orient="auto-start-reverse"
       inkscape:stockid="Arrow5"
       markerWidth="5.8874264"
       markerHeight="6.6094756"
       viewBox="0 0 5.8874262 6.6094758"
       inkscape:isstock="true"
       inkscape:collect="always"
       preserveAspectRatio="xMidYMid"><path
         transform="scale(0.5)"
         style="fill:context-stroke;fill-rule:evenodd;stroke:context-stroke;stroke-width:1pt"
         d="m 6,0 c -3,1 -7,3 -9,5 0,0 0,-4 2,-5 -2,-1 -2,-5 -2,-5 2,2 6,4 9,5 z"
         id="path8893" /></marker><marker
       style="overflow:visible"
       id="Arrow5-2-9"
       refX="0"
       refY="0"
       orient="auto-start-reverse"
       inkscape:stockid="Arrow5"
       markerWidth="5.8874264"
       markerHeight="6.6094756"
       viewBox="0 0 5.8874262 6.6094758"
       inkscape:isstock="true"
       inkscape:collect="always"
       preserveAspectRatio="xMidYMid"><path
         transform="scale(0.5)"
         style="fill:context-stroke;fill-rule:evenodd;stroke:context-stroke;stroke-width:1pt"
         d="m 6,0 c -3,1 -7,3 -9,5 0,0 0,-4 2,-5 -2,-1 -2,-5 -2,-5 2,2 6,4 9,5 z"
         id="path8893-8-4" /></marker><marker
       style="overflow:visible"
       id="Arrow5-2-892-9-37"
       refX="0"
       refY="0"
       orient="auto-start-reverse"
       inkscape:stockid="Arrow5"
       markerWidth="5.8874264"
       markerHeight="6.6094756"
       viewBox="0 0 5.8874262 6.6094758"
       inkscape:isstock="true"
       inkscape:collect="always"
       preserveAspectRatio="xMidYMid"><path
         transform="scale(0.5)"
         style="fill:context-stroke;fill-rule:evenodd;stroke:context-stroke;stroke-width:1pt"
         d="m 6,0 c -3,1 -7,3 -9,5 0,0 0,-4 2,-5 -2,-1 -2,-5 -2,-5 2,2 6,4 9,5 z"
         id="path8893-8-8-3-53" /></marker><marker
       style="overflow:visible"
       id="Arrow5-5-3"
       refX="0"
       refY="0"
       orient="auto-start-reverse"
       inkscape:stockid="Arrow5"
       markerWidth="5.8874264"
       markerHeight="6.6094756"
       viewBox="0 0 5.8874262 6.6094758"
       inkscape:isstock="true"
       inkscape:collect="always"
       preserveAspectRatio="xMidYMid"><path
         transform="scale(0.5)"
         style="fill:context-stroke;fill-rule:evenodd;stroke:context-stroke;stroke-width:1pt"
         d="m 6,0 c -3,1 -7,3 -9,5 0,0 0,-4 2,-5 -2,-1 -2,-5 -2,-5 2,2 6,4 9,5 z"
         id="path8893-9-42" /></marker><marker
       style="overflow:visible"
       id="Arrow5-5-8-9"
       refX="0"
       refY="0"
       orient="auto-start-reverse"
       inkscape:stockid="Arrow5"
       markerWidth="5.8874264"
       markerHeight="6.6094756"
       viewBox="0 0 5.8874262 6.6094758"
       inkscape:isstock="true"
       inkscape:collect="always"
       preserveAspectRatio="xMidYMid"><path
         transform="scale(0.5)"
         style="fill:context-stroke;fill-rule:evenodd;stroke:context-stroke;stroke-width:1pt"
         d="m 6,0 c -3,1 -7,3 -9,5 0,0 0,-4 2,-5 -2,-1 -2,-5 -2,-5 2,2 6,4 9,5 z"
         id="path8893-9-9-4" /></marker><marker
       style="overflow:visible"
       id="Arrow5-8"
       refX="0"
       refY="0"
       orient="auto-start-reverse"
       inkscape:stockid="Arrow5"
       markerWidth="5.8874264"
       markerHeight="6.6094756"
       viewBox="0 0 5.8874262 6.6094758"
       inkscape:isstock="true"
       inkscape:collect="always"
       preserveAspectRatio="xMidYMid"><path
         transform="scale(0.5)"
         style="fill:context-stroke;fill-rule:evenodd;stroke:context-stroke;stroke-width:1pt"
         d="m 6,0 c -3,1 -7,3 -9,5 0,0 0,-4 2,-5 -2,-1 -2,-5 -2,-5 2,2 6,4 9,5 z"
         id="path8893-5" /></marker><marker
       style="overflow:visible"
       id="Arrow5-5-3-9"
       refX="0"
       refY="0"
       orient="auto-start-reverse"
       inkscape:stockid="Arrow5"
       markerWidth="5.8874264"
       markerHeight="6.6094756"
       viewBox="0 0 5.8874262 6.6094758"
       inkscape:isstock="true"
       inkscape:collect="always"
       preserveAspectRatio="xMidYMid"><path
         transform="scale(0.5)"
         style="fill:context-stroke;fill-rule:evenodd;stroke:context-stroke;stroke-width:1pt"
         d="m 6,0 c -3,1 -7,3 -9,5 0,0 0,-4 2,-5 -2,-1 -2,-5 -2,-5 2,2 6,4 9,5 z"
         id="path8893-9-42-6" /></marker><marker
       style="overflow:visible"
       id="Arrow5-5-3-9-7"
       refX="0"
       refY="0"
       orient="auto-start-reverse"
       inkscape:stockid="Arrow5"
       markerWidth="5.8874264"
       markerHeight="6.6094756"
       viewBox="0 0 5.8874262 6.6094758"
       inkscape:isstock="true"
       inkscape:collect="always"
       preserveAspectRatio="xMidYMid"><path
         transform="scale(0.5)"
         style="fill:context-stroke;fill-rule:evenodd;stroke:context-stroke;stroke-width:1pt"
         d="m 6,0 c -3,1 -7,3 -9,5 0,0 0,-4 2,-5 -2,-1 -2,-5 -2,-5 2,2 6,4 9,5 z"
         id="path8893-9-42-6-6" /></marker><marker
       style="overflow:visible"
       id="Arrow5-5-3-9-5"
       refX="0"
       refY="0"
       orient="auto-start-reverse"
       inkscape:stockid="Arrow5"
       markerWidth="5.8874264"
       markerHeight="6.6094756"
       viewBox="0 0 5.8874262 6.6094758"
       inkscape:isstock="true"
       inkscape:collect="always"
       preserveAspectRatio="xMidYMid"><path
         transform="scale(0.5)"
         style="fill:context-stroke;fill-rule:evenodd;stroke:context-stroke;stroke-width:1pt"
         d="m 6,0 c -3,1 -7,3 -9,5 0,0 0,-4 2,-5 -2,-1 -2,-5 -2,-5 2,2 6,4 9,5 z"
         id="path8893-9-42-6-0" /></marker><marker
       style="overflow:visible"
       id="Arrow5-5-3-9-3"
       refX="0"
       refY="0"
       orient="auto-start-reverse"
       inkscape:stockid="Arrow5"
       markerWidth="5.8874264"
       markerHeight="6.6094756"
       viewBox="0 0 5.8874262 6.6094758"
       inkscape:isstock="true"
       inkscape:collect="always"
       preserveAspectRatio="xMidYMid"><path
         transform="scale(0.5)"
         style="fill:context-stroke;fill-rule:evenodd;stroke:context-stroke;stroke-width:1pt"
         d="m 6,0 c -3,1 -7,3 -9,5 0,0 0,-4 2,-5 -2,-1 -2,-5 -2,-5 2,2 6,4 9,5 z"
         id="path8893-9-42-6-62" /></marker><marker
       style="overflow:visible"
       id="Arrow5-5-3-9-5-3"
       refX="0"
       refY="0"
       orient="auto-start-reverse"
       inkscape:stockid="Arrow5"
       markerWidth="5.8874264"
       markerHeight="6.6094756"
       viewBox="0 0 5.8874262 6.6094758"
       inkscape:isstock="true"
       inkscape:collect="always"
       preserveAspectRatio="xMidYMid"><path
         transform="scale(0.5)"
         style="fill:context-stroke;fill-rule:evenodd;stroke:context-stroke;stroke-width:1pt"
         d="m 6,0 c -3,1 -7,3 -9,5 0,0 0,-4 2,-5 -2,-1 -2,-5 -2,-5 2,2 6,4 9,5 z"
         id="path8893-9-42-6-0-1" /></marker><marker
       style="overflow:visible"
       id="Arrow5-5-3-0"
       refX="0"
       refY="0"
       orient="auto-start-reverse"
       inkscape:stockid="Arrow5"
       markerWidth="5.8874264"
       markerHeight="6.6094756"
       viewBox="0 0 5.8874262 6.6094758"
       inkscape:isstock="true"
       inkscape:collect="always"
       preserveAspectRatio="xMidYMid"><path
         transform="scale(0.5)"
         style="fill:context-stroke;fill-rule:evenodd;stroke:context-stroke;stroke-width:1pt"
         d="m 6,0 c -3,1 -7,3 -9,5 0,0 0,-4 2,-5 -2,-1 -2,-5 -2,-5 2,2 6,4 9,5 z"
         id="path8893-9-42-3" /></marker><marker
       style="overflow:visible"
       id="Arrow5-5-3-0-7"
       refX="0"
       refY="0"
       orient="auto-start-reverse"
       inkscape:stockid="Arrow5"
       markerWidth="5.8874264"
       markerHeight="6.6094756"
       viewBox="0 0 5.8874262 6.6094758"
       inkscape:isstock="true"
       inkscape:collect="always"
       preserveAspectRatio="xMidYMid"><path
         transform="scale(0.5)"
         style="fill:context-stroke;fill-rule:evenodd;stroke:context-stroke;stroke-width:1pt"
         d="m 6,0 c -3,1 -7,3 -9,5 0,0 0,-4 2,-5 -2,-1 -2,-5 -2,-5 2,2 6,4 9,5 z"
         id="path8893-9-42-3-9" /></marker><marker
       style="overflow:visible"
       id="Arrow5-5-3-0-2"
       refX="0"
       refY="0"
       orient="auto-start-reverse"
       inkscape:stockid="Arrow5"
       markerWidth="5.8874264"
       markerHeight="6.6094756"
       viewBox="0 0 5.8874262 6.6094758"
       inkscape:isstock="true"
       inkscape:collect="always"
       preserveAspectRatio="xMidYMid"><path
         transform="scale(0.5)"
         style="fill:context-stroke;fill-rule:evenodd;stroke:context-stroke;stroke-width:1pt"
         d="m 6,0 c -3,1 -7,3 -9,5 0,0 0,-4 2,-5 -2,-1 -2,-5 -2,-5 2,2 6,4 9,5 z"
         id="path8893-9-42-3-1" /></marker><marker
       style="overflow:visible"
       id="Arrow5-2-9-1"
       refX="0"
       refY="0"
       orient="auto-start-reverse"
       inkscape:stockid="Arrow5"
       markerWidth="5.8874264"
       markerHeight="6.6094756"
       viewBox="0 0 5.8874262 6.6094758"
       inkscape:isstock="true"
       inkscape:collect="always"
       preserveAspectRatio="xMidYMid"><path
         transform="scale(0.5)"
         style="fill:context-stroke;fill-rule:evenodd;stroke:context-stroke;stroke-width:1pt"
         d="m 6,0 c -3,1 -7,3 -9,5 0,0 0,-4 2,-5 -2,-1 -2,-5 -2,-5 2,2 6,4 9,5 z"
         id="path8893-8-4-4" /></marker><marker
       style="overflow:visible"
       id="Arrow5-5-8-9-3"
       refX="0"
       refY="0"
       orient="auto-start-reverse"
       inkscape:stockid="Arrow5"
       markerWidth="5.8874264"
       markerHeight="6.6094756"
       viewBox="0 0 5.8874262 6.6094758"
       inkscape:isstock="true"
       inkscape:collect="always"
       preserveAspectRatio="xMidYMid"><path
         transform="scale(0.5)"
         style="fill:context-stroke;fill-rule:evenodd;stroke:context-stroke;stroke-width:1pt"
         d="m 6,0 c -3,1 -7,3 -9,5 0,0 0,-4 2,-5 -2,-1 -2,-5 -2,-5 2,2 6,4 9,5 z"
         id="path8893-9-9-4-7" /></marker></defs><g
     inkscape:groupmode="layer"
     id="layer2"
     inkscape:label="Vectors"
     transform="translate(308.11208,552.36205)"><path
       style="fill:none;fill-opacity:1;stroke:#882e66;stroke-width:2.936;stroke-dasharray:none;stroke-opacity:1;marker-end:url(#Arrow5)"
       d="m -252.74732,-390.82278 32.59868,32.59868"
       id="path1" /><path
       style="fill:none;fill-opacity:1;stroke:#882e66;stroke-width:2.936;stroke-dasharray:none;stroke-opacity:1;marker-end:url(#Arrow5)"
       d="m -193.91249,-328.69809 32.59868,32.59868"
       id="path1-1" /><path
       style="fill:none;fill-opacity:1;stroke:#882e66;stroke-width:2.936;stroke-dasharray:none;stroke-opacity:1;marker-end:url(#Arrow5)"
       d="m -135.38678,-279.09967 36.139604,28.62302"
       id="path1-7" /><path
       style="fill:none;fill-opacity:1;stroke:#882e66;stroke-width:2.936;stroke-dasharray:none;stroke-opacity:1;marker-end:url(#Arrow5)"
       d="m 219.7428,-470.5208 -44.80764,-10.84542"
       id="path1-3" /><path
       style="fill:none;fill-opacity:1;stroke:#882e66;stroke-width:2.936;stroke-dasharray:none;stroke-opacity:1;marker-end:url(#Arrow5)"
       d="M 294.72296,-435.65032 252.73094,-454.6771"
       id="path1-1-7" /><path
       style="fill:none;fill-opacity:1;stroke:#882e66;stroke-width:2.936;stroke-dasharray:none;stroke-opacity:1;marker-end:url(#Arrow5)"
       d="m 360.44568,-397.84177 -39.05338,-24.4986"
       id="path1-7-1" /><path
       style="fill:none;fill-opacity:1;stroke:#882e66;stroke-width:2.936;stroke-dasharray:none;stroke-opacity:1;marker-end:url(#Arrow5)"
       d="m 422.64105,-356.32194 -39.05338,-24.4986"
       id="path1-7-1-6" /><path
       style="fill:none;fill-opacity:1;stroke:#882e66;stroke-width:2.936;stroke-dasharray:none;stroke-opacity:1;marker-end:url(#Arrow5)"
       d="m 489.93333,-305.05313 -36.73622,-27.85316"
       id="path1-7-1-6-1" /><path
       style="fill:none;fill-opacity:1;stroke:#882e66;stroke-width:2.936;stroke-dasharray:none;stroke-opacity:1;marker-end:url(#Arrow5)"
       d="m -57.534111,-223.70239 39.8471,23.18526"
       id="path1-8" /><path
       style="fill:none;fill-opacity:1;stroke:#882e66;stroke-width:2.936;stroke-dasharray:none;stroke-opacity:1;marker-end:url(#Arrow5)"
       d="m 245.56815,-350.72256 -37.335,-27.04524"
       id="path1-8-5" /><path
       style="fill:none;fill-opacity:1;stroke:#882e66;stroke-width:2.936;stroke-dasharray:none;stroke-opacity:1;marker-end:url(#Arrow5)"
       d="M 179.13767,-394.85161 143.5758,-414.58267"
       id="path1-8-5-5"
       sodipodi:nodetypes="cc" /><path
       style="fill:none;fill-opacity:1;stroke:#882e66;stroke-width:2.936;stroke-dasharray:none;stroke-opacity:1;marker-end:url(#Arrow5)"
       d="M 16.367595,-418.56791 5.0538249,-401.75895"
       id="path1-8-5-0"
       sodipodi:nodetypes="cc" /><path
       style="fill:none;fill-opacity:1;stroke:#882e66;stroke-width:2.936;stroke-dasharray:none;stroke-opacity:1;marker-end:url(#Arrow5)"
       d="m -33.320262,-454.10484 -11.31377,16.80896"
       id="path1-8-5-0-7"
       sodipodi:nodetypes="cc" /><path
       style="fill:none;fill-opacity:1;stroke:#882e66;stroke-width:2.936;stroke-dasharray:none;stroke-opacity:1;marker-end:url(#Arrow5)"
       d="m -1.4568539,-360.64402 10.2600747,17.47208"
       id="path1-8-5-0-2"
       sodipodi:nodetypes="cc" /><path
       style="fill:none;fill-opacity:1;stroke:#882e66;stroke-width:2.936;stroke-dasharray:none;stroke-opacity:1;marker-end:url(#Arrow5)"
       d="m 27.954496,-315.57364 15.554555,12.98456"
       id="path1-8-5-0-2-5"
       sodipodi:nodetypes="cc" /><path
       style="fill:none;fill-opacity:1;stroke:#882e66;stroke-width:2.936;stroke-dasharray:none;stroke-opacity:1;marker-end:url(#Arrow5)"
       d="m -46.975593,-367.15353 10.260075,17.47208"
       id="path1-8-5-0-2-8"
       sodipodi:nodetypes="cc" /><path
       style="fill:none;fill-opacity:1;stroke:#882e66;stroke-width:2.936;stroke-dasharray:none;stroke-opacity:1;marker-end:url(#Arrow5)"
       d="m -55.132264,-411.02893 0.591621,20.25322"
       id="path1-8-5-0-2-8-9"
       sodipodi:nodetypes="cc" /><path
       style="fill:none;fill-opacity:1;stroke:#882e66;stroke-width:2.936;stroke-dasharray:none;stroke-opacity:1;marker-end:url(#Arrow5)"
       d="m -17.564243,-322.08315 15.5545551,12.98456"
       id="path1-8-5-0-2-5-2"
       sodipodi:nodetypes="cc" /><path
       style="fill:none;fill-opacity:1;stroke:#882e66;stroke-width:2.936;stroke-dasharray:none;stroke-opacity:1;marker-end:url(#Arrow5-2-9)"
       d="m -246.61531,-139.0989 1.26596,0.86926"
       id="path1-8-5-0-2-5-2-6-3"
       sodipodi:nodetypes="cc" /><path
       style="fill:none;fill-opacity:1;stroke:#882e66;stroke-width:2.936;stroke-dasharray:none;stroke-opacity:1;marker-end:url(#Arrow5-2-9-1)"
       d="m -275.46699,-257.68926 1.26597,0.86926"
       id="path1-8-5-0-2-5-2-6-3-2"
       sodipodi:nodetypes="cc" /><path
       style="fill:none;fill-opacity:1;stroke:#882e66;stroke-width:2.936;stroke-dasharray:none;stroke-opacity:1;marker-end:url(#Arrow5-2-892-9-37)"
       d="m 511.55687,-527.74978 -1.53549,-1.18776"
       id="path1-8-5-0-2-5-2-6-4-6-9"
       sodipodi:nodetypes="cc" /><path
       style="fill:none;fill-opacity:1;stroke:#882e66;stroke-width:2.936;stroke-dasharray:none;stroke-opacity:1;marker-end:url(#Arrow5)"
       d="m 57.78544,-432.97268 -23.504171,2.83888"
       id="path1-8-5-0-9"
       sodipodi:nodetypes="cc" /><path
       style="fill:none;fill-opacity:1;stroke:#882e66;stroke-width:2.936;stroke-dasharray:none;stroke-opacity:1;marker-end:url(#Arrow5)"
       d="m 52.705416,-486.01087 -23.504171,2.83888"
       id="path1-8-5-0-9-9"
       sodipodi:nodetypes="cc" /><path
       style="fill:none;fill-opacity:1;stroke:#882e66;stroke-width:2.936;stroke-dasharray:none;stroke-opacity:1;marker-end:url(#Arrow5)"
       d="m 18.380278,-284.10672 39.479124,23.80642"
       id="path1-8-5-57" /><path
       style="fill:none;fill-opacity:1;stroke:#882e66;stroke-width:2.936;stroke-dasharray:none;stroke-opacity:1;marker-end:url(#Arrow5)"
       d="m 92.441402,-237.34052 42.328978,18.26482"
       id="path1-8-5-57-9" /><path
       style="fill:none;fill-opacity:1;stroke:#882e66;stroke-width:2.936;stroke-dasharray:none;stroke-opacity:1;marker-end:url(#Arrow5)"
       d="M 113.66074,-426.48438 83.16157,-433.4592"
       id="path1-8-5-2"
       sodipodi:nodetypes="cc" /><path
       style="fill:none;fill-opacity:1;stroke:#882e66;stroke-width:2.936;stroke-dasharray:none;stroke-opacity:1;marker-end:url(#Arrow5)"
       d="m 139.54543,-488.71429 -31.18938,-2.4639"
       id="path1-8-5-2-8"
       sodipodi:nodetypes="cc" /><path
       style="fill:none;fill-opacity:1;stroke:#882e66;stroke-width:2.936;stroke-dasharray:none;stroke-opacity:1;marker-end:url(#Arrow5)"
       d="m 46.446778,-173.72052 43.704418,14.67214"
       id="path1-76" /><path
       style="fill:none;fill-opacity:1;stroke:#882e66;stroke-width:2.936;stroke-dasharray:none;stroke-opacity:1;marker-end:url(#Arrow5)"
       d="m 147.94879,-146.42129 46.08432,1.25804"
       id="path1-0" /><path
       style="fill:none;fill-opacity:1;stroke:#882e66;stroke-width:2.936;stroke-dasharray:none;stroke-opacity:1;marker-end:url(#Arrow5)"
       d="m 179.97753,-202.34536 32.78581,-0.29346"
       id="path1-0-8"
       sodipodi:nodetypes="cc" /><path
       style="fill:none;fill-opacity:1;stroke:#882e66;stroke-width:2.936;stroke-dasharray:none;stroke-opacity:1;marker-end:url(#Arrow5)"
       d="m 241.12347,-148.94298 28.65919,-6.80623"
       id="path1-4"
       sodipodi:nodetypes="cc" /><path
       style="fill:none;fill-opacity:1;stroke:#882e66;stroke-width:2.936;stroke-dasharray:none;stroke-opacity:1;marker-end:url(#Arrow5)"
       d="m 306.26539,-171.02683 15.40102,-17.22664"
       id="path1-5"
       sodipodi:nodetypes="cc" /><path
       style="fill:none;fill-opacity:1;stroke:#882e66;stroke-width:2.936;stroke-dasharray:none;stroke-opacity:1;marker-end:url(#Arrow5)"
       d="m 252.14662,-216.05698 15.40102,-17.22664"
       id="path1-5-8"
       sodipodi:nodetypes="cc" /><path
       style="fill:none;fill-opacity:1;stroke:#882e66;stroke-width:2.936;stroke-dasharray:none;stroke-opacity:1;marker-end:url(#Arrow5)"
       d="m 331.20148,-216.95425 1.09844,-18.8074"
       id="path1-5-2"
       sodipodi:nodetypes="cc" /><path
       style="fill:none;fill-opacity:1;stroke:#882e66;stroke-width:2.936;stroke-dasharray:none;stroke-opacity:1;marker-end:url(#Arrow5)"
       d="m 321.56957,-271.47016 -8.6792,-12.05175"
       id="path1-5-2-9"
       sodipodi:nodetypes="cc" /><path
       style="fill:none;fill-opacity:1;stroke:#882e66;stroke-width:2.936;stroke-dasharray:none;stroke-opacity:1;marker-end:url(#Arrow5)"
       d="m 293.31674,-308.03204 -15.89351,-17.9923"
       id="path1-5-2-9-5"
       sodipodi:nodetypes="cc" /><path
       style="fill:none;fill-opacity:1;stroke:#882e66;stroke-width:2.936;stroke-dasharray:none;stroke-opacity:1;marker-end:url(#Arrow5)"
       d="m 56.650847,-377.09853 -4.18973,10.69018"
       id="path1-8-5-0-26"
       sodipodi:nodetypes="cc" /><path
       style="fill:none;fill-opacity:1;stroke:#882e66;stroke-width:2.936;stroke-dasharray:none;stroke-opacity:1;marker-end:url(#Arrow5)"
       d="m 90.72303,-361.92254 -4.362205,8.01361"
       id="path1-8-5-0-26-8"
       sodipodi:nodetypes="cc" /><path
       style="fill:none;fill-opacity:1;stroke:#882e66;stroke-width:2.936;stroke-dasharray:none;stroke-opacity:1;marker-end:url(#Arrow5)"
       d="m 176.18396,-350.47257 -9.96475,-7.40137"
       id="path1-8-5-0-6"
       sodipodi:nodetypes="cc" /><path
       style="fill:none;fill-opacity:1;stroke:#882e66;stroke-width:2.936;stroke-dasharray:none;stroke-opacity:1;marker-end:url(#Arrow5)"
       d="m 198.59373,-320.47613 -2.6895,-8.69865"
       id="path1-8-5-0-96"
       sodipodi:nodetypes="cc" /><path
       style="fill:none;fill-opacity:1;stroke:#882e66;stroke-width:2.936;stroke-dasharray:none;stroke-opacity:1;marker-end:url(#Arrow5)"
       d="m 55.757651,-335.16326 6.740372,7.51501"
       id="path1-8-5-0-1"
       sodipodi:nodetypes="cc" /><path
       style="fill:none;fill-opacity:1;stroke:#882e66;stroke-width:2.936;stroke-dasharray:none;stroke-opacity:1;marker-end:url(#Arrow5)"
       d="m 97.456228,-299.84353 9.897102,5.32404"
       id="path1-8-5-0-4"
       sodipodi:nodetypes="cc" /><path
       style="fill:none;fill-opacity:1;stroke:#882e66;stroke-width:2.936;stroke-dasharray:none;stroke-opacity:1;marker-end:url(#Arrow5)"
       d="m 137.53777,-281.59519 8.68546,0.95047"
       id="path1-8-5-0-92"
       sodipodi:nodetypes="cc" /><path
       style="fill:none;fill-opacity:1;stroke:#882e66;stroke-width:2.936;stroke-dasharray:none;stroke-opacity:1;marker-end:url(#Arrow5)"
       d="m 127.27579,-371.1879 -10.89535,-0.8095"
       id="path1-8-5-0-92-3"
       sodipodi:nodetypes="cc" /><path
       style="fill:none;fill-opacity:1;stroke:#882e66;stroke-width:2.936;stroke-dasharray:none;stroke-opacity:1;marker-end:url(#Arrow5)"
       d="m 190.83747,-281.3414 7.23393,-4.92812"
       id="path1-8-5-0-92-3-6"
       sodipodi:nodetypes="cc" /><path
       style="fill:none;fill-opacity:1;stroke:#882e66;stroke-width:2.936;stroke-dasharray:none;stroke-opacity:1;marker-end:url(#Arrow5-8)"
       d="m 134.05379,-326.61728 1.67021,-1.40182"
       id="path1-8-5-0-92-3-6-4"
       sodipodi:nodetypes="cc" /><path
       style="fill:none;fill-opacity:1;stroke:#882e66;stroke-width:2.936;stroke-dasharray:none;stroke-opacity:1;marker-end:url(#Arrow5-5-8-9)"
       d="m -136.7383,-529.5578 -1.7708,1.39328"
       id="path1-8-5-0-92-3-6-9-1-0"
       sodipodi:nodetypes="cc" /><path
       style="fill:none;fill-opacity:1;stroke:#882e66;stroke-width:2.936;stroke-dasharray:none;stroke-opacity:1;marker-end:url(#Arrow5-5-8-9-3)"
       d="m -279.19554,-480.17875 -0.21931,3.16641"
       id="path1-8-5-0-92-3-6-9-1-0-4"
       sodipodi:nodetypes="cc" /><path
       style="fill:none;fill-opacity:1;stroke:#882e66;stroke-width:2.936;stroke-dasharray:none;stroke-opacity:1;marker-end:url(#Arrow5-5-3)"
       d="m 497.17692,-116.70329 2.21875,-2.26381"
       id="path1-8-5-0-92-3-6-9-3"
       sodipodi:nodetypes="cc" /><path
       style="fill:none;fill-opacity:1;stroke:#882e66;stroke-width:2.936;stroke-dasharray:none;stroke-opacity:1;marker-end:url(#Arrow5-5-3-0)"
       d="m 518.0191,-223.1359 0.10297,-3.04743"
       id="path1-8-5-0-92-3-6-9-3-7"
       sodipodi:nodetypes="cc" /><path
       style="fill:none;fill-opacity:1;stroke:#882e66;stroke-width:2.936;stroke-dasharray:none;stroke-opacity:1;marker-end:url(#Arrow5-5-3-0-7)"
       d="m 530.65922,-345.85606 0.10297,-3.04743"
       id="path1-8-5-0-92-3-6-9-3-7-7"
       sodipodi:nodetypes="cc" /><path
       style="fill:none;fill-opacity:1;stroke:#882e66;stroke-width:2.936;stroke-dasharray:none;stroke-opacity:1;marker-end:url(#Arrow5-5-3-0-2)"
       d="m 527.99952,-435.39934 -1.621,-3.20415"
       id="path1-8-5-0-92-3-6-9-3-7-6"
       sodipodi:nodetypes="cc" /><path
       style="fill:none;fill-opacity:1;stroke:#882e66;stroke-width:2.936;stroke-dasharray:none;stroke-opacity:1;marker-end:url(#Arrow5-5-3-9)"
       d="m 158.95941,-103.44934 4.65681,0.17425"
       id="path1-8-5-0-92-3-6-9-3-2"
       sodipodi:nodetypes="cc" /><path
       style="fill:none;fill-opacity:1;stroke:#882e66;stroke-width:2.936;stroke-dasharray:none;stroke-opacity:1;marker-end:url(#Arrow5-5-3-9-5)"
       d="m 346.42036,-100.1858 4.43517,-1.59888"
       id="path1-8-5-0-92-3-6-9-3-2-3"
       sodipodi:nodetypes="cc" /><path
       style="fill:none;fill-opacity:1;stroke:#882e66;stroke-width:2.936;stroke-dasharray:none;stroke-opacity:1;marker-end:url(#Arrow5-5-3-9-7)"
       d="m -71.98211,-109.11841 3.43778,0.72835"
       id="path1-8-5-0-92-3-6-9-3-2-4"
       sodipodi:nodetypes="cc" /><path
       style="fill:none;fill-opacity:1;stroke:#882e66;stroke-width:2.936;stroke-dasharray:none;stroke-opacity:1;marker-end:url(#Arrow5-5-3-9-3)"
       d="m 130.0913,-532.65874 -4.65681,-0.17425"
       id="path1-8-5-0-92-3-6-9-3-2-44"
       sodipodi:nodetypes="cc" /><path
       style="fill:none;fill-opacity:1;stroke:#882e66;stroke-width:2.936;stroke-dasharray:none;stroke-opacity:1;marker-end:url(#Arrow5-5-3-9-5-3)"
       d="m 317.33061,-531.16833 -3.65942,-0.50672"
       id="path1-8-5-0-92-3-6-9-3-2-3-3"
       sodipodi:nodetypes="cc" /></g></svg>
