<?xml version="1.0" encoding="UTF-8" standalone="no"?>
<!-- Created with Inkscape (http://www.inkscape.org/) -->

<svg
   width="855.82324mm"
   height="464.6391mm"
   viewBox="0 0 855.82324 464.6391"
   version="1.1"
   id="svg1"
   xml:space="preserve"
   inkscape:version="1.2.1 (9c6d41e410, 2022-07-14)"
   sodipodi:docname="galaxy.svg"
   xmlns:inkscape="http://www.inkscape.org/namespaces/inkscape"
   xmlns:sodipodi="http://sodipodi.sourceforge.net/DTD/sodipodi-0.dtd"
   xmlns="http://www.w3.org/2000/svg"
   xmlns:svg="http://www.w3.org/2000/svg"><sodipodi:namedview
     id="namedview1"
     pagecolor="#ffffff"
     bordercolor="#000000"
     borderopacity="0.25"
     inkscape:showpageshadow="2"
     inkscape:pageopacity="0.0"
     inkscape:pagecheckerboard="0"
     inkscape:deskcolor="#d1d1d1"
     inkscape:document-units="mm"
     inkscape:zoom="0.14921788"
     inkscape:cx="1363.7776"
     inkscape:cy="3022.426"
     inkscape:window-width="2560"
     inkscape:window-height="1369"
     inkscape:window-x="-8"
     inkscape:window-y="-8"
     inkscape:window-maximized="1"
     inkscape:current-layer="layer2"
     showgrid="false" /><defs
     id="defs1"><marker
       style="overflow:visible"
       id="Arrow5"
       refX="0"
       refY="0"
       orient="auto-start-reverse"
       inkscape:stockid="Arrow5"
       markerWidth="5.8874264"
       markerHeight="6.6094756"
       viewBox="0 0 5.8874262 6.6094758"
       inkscape:isstock="true"
       inkscape:collect="always"
       preserveAspectRatio="xMidYMid"><path
         transform="scale(0.5)"
         style="fill:context-stroke;fill-rule:evenodd;stroke:context-stroke;stroke-width:1pt"
         d="m 6,0 c -3,1 -7,3 -9,5 0,0 0,-4 2,-5 -2,-1 -2,-5 -2,-5 2,2 6,4 9,5 z"
         id="path8893" /></marker><marker
       style="overflow:visible"
       id="Arrow5-2"
       refX="0"
       refY="0"
       orient="auto-start-reverse"
       inkscape:stockid="Arrow5"
       markerWidth="5.8874264"
       markerHeight="6.6094756"
       viewBox="0 0 5.8874262 6.6094758"
       inkscape:isstock="true"
       inkscape:collect="always"
       preserveAspectRatio="xMidYMid"><path
         transform="scale(0.5)"
         style="fill:context-stroke;fill-rule:evenodd;stroke:context-stroke;stroke-width:1pt"
         d="m 6,0 c -3,1 -7,3 -9,5 0,0 0,-4 2,-5 -2,-1 -2,-5 -2,-5 2,2 6,4 9,5 z"
         id="path8893-8" /></marker><marker
       style="overflow:visible"
       id="Arrow5-2-8"
       refX="0"
       refY="0"
       orient="auto-start-reverse"
       inkscape:stockid="Arrow5"
       markerWidth="5.8874264"
       markerHeight="6.6094756"
       viewBox="0 0 5.8874262 6.6094758"
       inkscape:isstock="true"
       inkscape:collect="always"
       preserveAspectRatio="xMidYMid"><path
         transform="scale(0.5)"
         style="fill:context-stroke;fill-rule:evenodd;stroke:context-stroke;stroke-width:1pt"
         d="m 6,0 c -3,1 -7,3 -9,5 0,0 0,-4 2,-5 -2,-1 -2,-5 -2,-5 2,2 6,4 9,5 z"
         id="path8893-8-1" /></marker><marker
       style="overflow:visible"
       id="Arrow5-2-9"
       refX="0"
       refY="0"
       orient="auto-start-reverse"
       inkscape:stockid="Arrow5"
       markerWidth="5.8874264"
       markerHeight="6.6094756"
       viewBox="0 0 5.8874262 6.6094758"
       inkscape:isstock="true"
       inkscape:collect="always"
       preserveAspectRatio="xMidYMid"><path
         transform="scale(0.5)"
         style="fill:context-stroke;fill-rule:evenodd;stroke:context-stroke;stroke-width:1pt"
         d="m 6,0 c -3,1 -7,3 -9,5 0,0 0,-4 2,-5 -2,-1 -2,-5 -2,-5 2,2 6,4 9,5 z"
         id="path8893-8-4" /></marker><marker
       style="overflow:visible"
       id="Arrow5-2-96"
       refX="0"
       refY="0"
       orient="auto-start-reverse"
       inkscape:stockid="Arrow5"
       markerWidth="5.8874264"
       markerHeight="6.6094756"
       viewBox="0 0 5.8874262 6.6094758"
       inkscape:isstock="true"
       inkscape:collect="always"
       preserveAspectRatio="xMidYMid"><path
         transform="scale(0.5)"
         style="fill:context-stroke;fill-rule:evenodd;stroke:context-stroke;stroke-width:1pt"
         d="m 6,0 c -3,1 -7,3 -9,5 0,0 0,-4 2,-5 -2,-1 -2,-5 -2,-5 2,2 6,4 9,5 z"
         id="path8893-8-5" /></marker><marker
       style="overflow:visible"
       id="Arrow5-2-7"
       refX="0"
       refY="0"
       orient="auto-start-reverse"
       inkscape:stockid="Arrow5"
       markerWidth="5.8874264"
       markerHeight="6.6094756"
       viewBox="0 0 5.8874262 6.6094758"
       inkscape:isstock="true"
       inkscape:collect="always"
       preserveAspectRatio="xMidYMid"><path
         transform="scale(0.5)"
         style="fill:context-stroke;fill-rule:evenodd;stroke:context-stroke;stroke-width:1pt"
         d="m 6,0 c -3,1 -7,3 -9,5 0,0 0,-4 2,-5 -2,-1 -2,-5 -2,-5 2,2 6,4 9,5 z"
         id="path8893-8-42" /></marker><marker
       style="overflow:visible"
       id="Arrow5-2-76"
       refX="0"
       refY="0"
       orient="auto-start-reverse"
       inkscape:stockid="Arrow5"
       markerWidth="5.8874264"
       markerHeight="6.6094756"
       viewBox="0 0 5.8874262 6.6094758"
       inkscape:isstock="true"
       inkscape:collect="always"
       preserveAspectRatio="xMidYMid"><path
         transform="scale(0.5)"
         style="fill:context-stroke;fill-rule:evenodd;stroke:context-stroke;stroke-width:1pt"
         d="m 6,0 c -3,1 -7,3 -9,5 0,0 0,-4 2,-5 -2,-1 -2,-5 -2,-5 2,2 6,4 9,5 z"
         id="path8893-8-9" /></marker><marker
       style="overflow:visible"
       id="Arrow5-2-71"
       refX="0"
       refY="0"
       orient="auto-start-reverse"
       inkscape:stockid="Arrow5"
       markerWidth="5.8874264"
       markerHeight="6.6094756"
       viewBox="0 0 5.8874262 6.6094758"
       inkscape:isstock="true"
       inkscape:collect="always"
       preserveAspectRatio="xMidYMid"><path
         transform="scale(0.5)"
         style="fill:context-stroke;fill-rule:evenodd;stroke:context-stroke;stroke-width:1pt"
         d="m 6,0 c -3,1 -7,3 -9,5 0,0 0,-4 2,-5 -2,-1 -2,-5 -2,-5 2,2 6,4 9,5 z"
         id="path8893-8-91" /></marker><marker
       style="overflow:visible"
       id="Arrow5-2-91"
       refX="0"
       refY="0"
       orient="auto-start-reverse"
       inkscape:stockid="Arrow5"
       markerWidth="5.8874264"
       markerHeight="6.6094756"
       viewBox="0 0 5.8874262 6.6094758"
       inkscape:isstock="true"
       inkscape:collect="always"
       preserveAspectRatio="xMidYMid"><path
         transform="scale(0.5)"
         style="fill:context-stroke;fill-rule:evenodd;stroke:context-stroke;stroke-width:1pt"
         d="m 6,0 c -3,1 -7,3 -9,5 0,0 0,-4 2,-5 -2,-1 -2,-5 -2,-5 2,2 6,4 9,5 z"
         id="path8893-8-96" /></marker><marker
       style="overflow:visible"
       id="Arrow5-2-4"
       refX="0"
       refY="0"
       orient="auto-start-reverse"
       inkscape:stockid="Arrow5"
       markerWidth="5.8874264"
       markerHeight="6.6094756"
       viewBox="0 0 5.8874262 6.6094758"
       inkscape:isstock="true"
       inkscape:collect="always"
       preserveAspectRatio="xMidYMid"><path
         transform="scale(0.5)"
         style="fill:context-stroke;fill-rule:evenodd;stroke:context-stroke;stroke-width:1pt"
         d="m 6,0 c -3,1 -7,3 -9,5 0,0 0,-4 2,-5 -2,-1 -2,-5 -2,-5 2,2 6,4 9,5 z"
         id="path8893-8-3" /></marker><marker
       style="overflow:visible"
       id="Arrow5-2-89"
       refX="0"
       refY="0"
       orient="auto-start-reverse"
       inkscape:stockid="Arrow5"
       markerWidth="5.8874264"
       markerHeight="6.6094756"
       viewBox="0 0 5.8874262 6.6094758"
       inkscape:isstock="true"
       inkscape:collect="always"
       preserveAspectRatio="xMidYMid"><path
         transform="scale(0.5)"
         style="fill:context-stroke;fill-rule:evenodd;stroke:context-stroke;stroke-width:1pt"
         d="m 6,0 c -3,1 -7,3 -9,5 0,0 0,-4 2,-5 -2,-1 -2,-5 -2,-5 2,2 6,4 9,5 z"
         id="path8893-8-6" /></marker><marker
       style="overflow:visible"
       id="Arrow5-2-3"
       refX="0"
       refY="0"
       orient="auto-start-reverse"
       inkscape:stockid="Arrow5"
       markerWidth="5.8874264"
       markerHeight="6.6094756"
       viewBox="0 0 5.8874262 6.6094758"
       inkscape:isstock="true"
       inkscape:collect="always"
       preserveAspectRatio="xMidYMid"><path
         transform="scale(0.5)"
         style="fill:context-stroke;fill-rule:evenodd;stroke:context-stroke;stroke-width:1pt"
         d="m 6,0 c -3,1 -7,3 -9,5 0,0 0,-4 2,-5 -2,-1 -2,-5 -2,-5 2,2 6,4 9,5 z"
         id="path8893-8-2" /></marker><marker
       style="overflow:visible"
       id="Arrow5-2-2"
       refX="0"
       refY="0"
       orient="auto-start-reverse"
       inkscape:stockid="Arrow5"
       markerWidth="5.8874264"
       markerHeight="6.6094756"
       viewBox="0 0 5.8874262 6.6094758"
       inkscape:isstock="true"
       inkscape:collect="always"
       preserveAspectRatio="xMidYMid"><path
         transform="scale(0.5)"
         style="fill:context-stroke;fill-rule:evenodd;stroke:context-stroke;stroke-width:1pt"
         d="m 6,0 c -3,1 -7,3 -9,5 0,0 0,-4 2,-5 -2,-1 -2,-5 -2,-5 2,2 6,4 9,5 z"
         id="path8893-8-7" /></marker><marker
       style="overflow:visible"
       id="Arrow5-2-1"
       refX="0"
       refY="0"
       orient="auto-start-reverse"
       inkscape:stockid="Arrow5"
       markerWidth="5.8874264"
       markerHeight="6.6094756"
       viewBox="0 0 5.8874262 6.6094758"
       inkscape:isstock="true"
       inkscape:collect="always"
       preserveAspectRatio="xMidYMid"><path
         transform="scale(0.5)"
         style="fill:context-stroke;fill-rule:evenodd;stroke:context-stroke;stroke-width:1pt"
         d="m 6,0 c -3,1 -7,3 -9,5 0,0 0,-4 2,-5 -2,-1 -2,-5 -2,-5 2,2 6,4 9,5 z"
         id="path8893-8-59" /></marker><marker
       style="overflow:visible"
       id="Arrow5-2-892"
       refX="0"
       refY="0"
       orient="auto-start-reverse"
       inkscape:stockid="Arrow5"
       markerWidth="5.8874264"
       markerHeight="6.6094756"
       viewBox="0 0 5.8874262 6.6094758"
       inkscape:isstock="true"
       inkscape:collect="always"
       preserveAspectRatio="xMidYMid"><path
         transform="scale(0.5)"
         style="fill:context-stroke;fill-rule:evenodd;stroke:context-stroke;stroke-width:1pt"
         d="m 6,0 c -3,1 -7,3 -9,5 0,0 0,-4 2,-5 -2,-1 -2,-5 -2,-5 2,2 6,4 9,5 z"
         id="path8893-8-8" /></marker><marker
       style="overflow:visible"
       id="Arrow5-2-892-9"
       refX="0"
       refY="0"
       orient="auto-start-reverse"
       inkscape:stockid="Arrow5"
       markerWidth="5.8874264"
       markerHeight="6.6094756"
       viewBox="0 0 5.8874262 6.6094758"
       inkscape:isstock="true"
       inkscape:collect="always"
       preserveAspectRatio="xMidYMid"><path
         transform="scale(0.5)"
         style="fill:context-stroke;fill-rule:evenodd;stroke:context-stroke;stroke-width:1pt"
         d="m 6,0 c -3,1 -7,3 -9,5 0,0 0,-4 2,-5 -2,-1 -2,-5 -2,-5 2,2 6,4 9,5 z"
         id="path8893-8-8-3" /></marker><marker
       style="overflow:visible"
       id="Arrow5-2-892-9-6"
       refX="0"
       refY="0"
       orient="auto-start-reverse"
       inkscape:stockid="Arrow5"
       markerWidth="5.8874264"
       markerHeight="6.6094756"
       viewBox="0 0 5.8874262 6.6094758"
       inkscape:isstock="true"
       inkscape:collect="always"
       preserveAspectRatio="xMidYMid"><path
         transform="scale(0.5)"
         style="fill:context-stroke;fill-rule:evenodd;stroke:context-stroke;stroke-width:1pt"
         d="m 6,0 c -3,1 -7,3 -9,5 0,0 0,-4 2,-5 -2,-1 -2,-5 -2,-5 2,2 6,4 9,5 z"
         id="path8893-8-8-3-5" /></marker><marker
       style="overflow:visible"
       id="Arrow5-2-892-9-3"
       refX="0"
       refY="0"
       orient="auto-start-reverse"
       inkscape:stockid="Arrow5"
       markerWidth="5.8874264"
       markerHeight="6.6094756"
       viewBox="0 0 5.8874262 6.6094758"
       inkscape:isstock="true"
       inkscape:collect="always"
       preserveAspectRatio="xMidYMid"><path
         transform="scale(0.5)"
         style="fill:context-stroke;fill-rule:evenodd;stroke:context-stroke;stroke-width:1pt"
         d="m 6,0 c -3,1 -7,3 -9,5 0,0 0,-4 2,-5 -2,-1 -2,-5 -2,-5 2,2 6,4 9,5 z"
         id="path8893-8-8-3-9" /></marker><marker
       style="overflow:visible"
       id="Arrow5-2-892-9-35"
       refX="0"
       refY="0"
       orient="auto-start-reverse"
       inkscape:stockid="Arrow5"
       markerWidth="5.8874264"
       markerHeight="6.6094756"
       viewBox="0 0 5.8874262 6.6094758"
       inkscape:isstock="true"
       inkscape:collect="always"
       preserveAspectRatio="xMidYMid"><path
         transform="scale(0.5)"
         style="fill:context-stroke;fill-rule:evenodd;stroke:context-stroke;stroke-width:1pt"
         d="m 6,0 c -3,1 -7,3 -9,5 0,0 0,-4 2,-5 -2,-1 -2,-5 -2,-5 2,2 6,4 9,5 z"
         id="path8893-8-8-3-8" /></marker><marker
       style="overflow:visible"
       id="Arrow5-2-892-9-9"
       refX="0"
       refY="0"
       orient="auto-start-reverse"
       inkscape:stockid="Arrow5"
       markerWidth="5.8874264"
       markerHeight="6.6094756"
       viewBox="0 0 5.8874262 6.6094758"
       inkscape:isstock="true"
       inkscape:collect="always"
       preserveAspectRatio="xMidYMid"><path
         transform="scale(0.5)"
         style="fill:context-stroke;fill-rule:evenodd;stroke:context-stroke;stroke-width:1pt"
         d="m 6,0 c -3,1 -7,3 -9,5 0,0 0,-4 2,-5 -2,-1 -2,-5 -2,-5 2,2 6,4 9,5 z"
         id="path8893-8-8-3-1" /></marker><marker
       style="overflow:visible"
       id="Arrow5-2-892-9-7"
       refX="0"
       refY="0"
       orient="auto-start-reverse"
       inkscape:stockid="Arrow5"
       markerWidth="5.8874264"
       markerHeight="6.6094756"
       viewBox="0 0 5.8874262 6.6094758"
       inkscape:isstock="true"
       inkscape:collect="always"
       preserveAspectRatio="xMidYMid"><path
         transform="scale(0.5)"
         style="fill:context-stroke;fill-rule:evenodd;stroke:context-stroke;stroke-width:1pt"
         d="m 6,0 c -3,1 -7,3 -9,5 0,0 0,-4 2,-5 -2,-1 -2,-5 -2,-5 2,2 6,4 9,5 z"
         id="path8893-8-8-3-55" /></marker><marker
       style="overflow:visible"
       id="Arrow5-2-892-9-70"
       refX="0"
       refY="0"
       orient="auto-start-reverse"
       inkscape:stockid="Arrow5"
       markerWidth="5.8874264"
       markerHeight="6.6094756"
       viewBox="0 0 5.8874262 6.6094758"
       inkscape:isstock="true"
       inkscape:collect="always"
       preserveAspectRatio="xMidYMid"><path
         transform="scale(0.5)"
         style="fill:context-stroke;fill-rule:evenodd;stroke:context-stroke;stroke-width:1pt"
         d="m 6,0 c -3,1 -7,3 -9,5 0,0 0,-4 2,-5 -2,-1 -2,-5 -2,-5 2,2 6,4 9,5 z"
         id="path8893-8-8-3-93" /></marker><marker
       style="overflow:visible"
       id="Arrow5-2-892-9-0"
       refX="0"
       refY="0"
       orient="auto-start-reverse"
       inkscape:stockid="Arrow5"
       markerWidth="5.8874264"
       markerHeight="6.6094756"
       viewBox="0 0 5.8874262 6.6094758"
       inkscape:isstock="true"
       inkscape:collect="always"
       preserveAspectRatio="xMidYMid"><path
         transform="scale(0.5)"
         style="fill:context-stroke;fill-rule:evenodd;stroke:context-stroke;stroke-width:1pt"
         d="m 6,0 c -3,1 -7,3 -9,5 0,0 0,-4 2,-5 -2,-1 -2,-5 -2,-5 2,2 6,4 9,5 z"
         id="path8893-8-8-3-3" /></marker><marker
       style="overflow:visible"
       id="Arrow5-2-892-9-37"
       refX="0"
       refY="0"
       orient="auto-start-reverse"
       inkscape:stockid="Arrow5"
       markerWidth="5.8874264"
       markerHeight="6.6094756"
       viewBox="0 0 5.8874262 6.6094758"
       inkscape:isstock="true"
       inkscape:collect="always"
       preserveAspectRatio="xMidYMid"><path
         transform="scale(0.5)"
         style="fill:context-stroke;fill-rule:evenodd;stroke:context-stroke;stroke-width:1pt"
         d="m 6,0 c -3,1 -7,3 -9,5 0,0 0,-4 2,-5 -2,-1 -2,-5 -2,-5 2,2 6,4 9,5 z"
         id="path8893-8-8-3-53" /></marker><marker
       style="overflow:visible"
       id="Arrow5-5"
       refX="0"
       refY="0"
       orient="auto-start-reverse"
       inkscape:stockid="Arrow5"
       markerWidth="5.8874264"
       markerHeight="6.6094756"
       viewBox="0 0 5.8874262 6.6094758"
       inkscape:isstock="true"
       inkscape:collect="always"
       preserveAspectRatio="xMidYMid"><path
         transform="scale(0.5)"
         style="fill:context-stroke;fill-rule:evenodd;stroke:context-stroke;stroke-width:1pt"
         d="m 6,0 c -3,1 -7,3 -9,5 0,0 0,-4 2,-5 -2,-1 -2,-5 -2,-5 2,2 6,4 9,5 z"
         id="path8893-9" /></marker><marker
       style="overflow:visible"
       id="Arrow5-5-5"
       refX="0"
       refY="0"
       orient="auto-start-reverse"
       inkscape:stockid="Arrow5"
       markerWidth="5.8874264"
       markerHeight="6.6094756"
       viewBox="0 0 5.8874262 6.6094758"
       inkscape:isstock="true"
       inkscape:collect="always"
       preserveAspectRatio="xMidYMid"><path
         transform="scale(0.5)"
         style="fill:context-stroke;fill-rule:evenodd;stroke:context-stroke;stroke-width:1pt"
         d="m 6,0 c -3,1 -7,3 -9,5 0,0 0,-4 2,-5 -2,-1 -2,-5 -2,-5 2,2 6,4 9,5 z"
         id="path8893-9-5" /></marker><marker
       style="overflow:visible"
       id="Arrow5-5-2"
       refX="0"
       refY="0"
       orient="auto-start-reverse"
       inkscape:stockid="Arrow5"
       markerWidth="5.8874264"
       markerHeight="6.6094756"
       viewBox="0 0 5.8874262 6.6094758"
       inkscape:isstock="true"
       inkscape:collect="always"
       preserveAspectRatio="xMidYMid"><path
         transform="scale(0.5)"
         style="fill:context-stroke;fill-rule:evenodd;stroke:context-stroke;stroke-width:1pt"
         d="m 6,0 c -3,1 -7,3 -9,5 0,0 0,-4 2,-5 -2,-1 -2,-5 -2,-5 2,2 6,4 9,5 z"
         id="path8893-9-4" /></marker><marker
       style="overflow:visible"
       id="Arrow5-5-8"
       refX="0"
       refY="0"
       orient="auto-start-reverse"
       inkscape:stockid="Arrow5"
       markerWidth="5.8874264"
       markerHeight="6.6094756"
       viewBox="0 0 5.8874262 6.6094758"
       inkscape:isstock="true"
       inkscape:collect="always"
       preserveAspectRatio="xMidYMid"><path
         transform="scale(0.5)"
         style="fill:context-stroke;fill-rule:evenodd;stroke:context-stroke;stroke-width:1pt"
         d="m 6,0 c -3,1 -7,3 -9,5 0,0 0,-4 2,-5 -2,-1 -2,-5 -2,-5 2,2 6,4 9,5 z"
         id="path8893-9-9" /></marker><marker
       style="overflow:visible"
       id="Arrow5-5-0"
       refX="0"
       refY="0"
       orient="auto-start-reverse"
       inkscape:stockid="Arrow5"
       markerWidth="5.8874264"
       markerHeight="6.6094756"
       viewBox="0 0 5.8874262 6.6094758"
       inkscape:isstock="true"
       inkscape:collect="always"
       preserveAspectRatio="xMidYMid"><path
         transform="scale(0.5)"
         style="fill:context-stroke;fill-rule:evenodd;stroke:context-stroke;stroke-width:1pt"
         d="m 6,0 c -3,1 -7,3 -9,5 0,0 0,-4 2,-5 -2,-1 -2,-5 -2,-5 2,2 6,4 9,5 z"
         id="path8893-9-3" /></marker><marker
       style="overflow:visible"
       id="Arrow5-5-3"
       refX="0"
       refY="0"
       orient="auto-start-reverse"
       inkscape:stockid="Arrow5"
       markerWidth="5.8874264"
       markerHeight="6.6094756"
       viewBox="0 0 5.8874262 6.6094758"
       inkscape:isstock="true"
       inkscape:collect="always"
       preserveAspectRatio="xMidYMid"><path
         transform="scale(0.5)"
         style="fill:context-stroke;fill-rule:evenodd;stroke:context-stroke;stroke-width:1pt"
         d="m 6,0 c -3,1 -7,3 -9,5 0,0 0,-4 2,-5 -2,-1 -2,-5 -2,-5 2,2 6,4 9,5 z"
         id="path8893-9-42" /></marker><marker
       style="overflow:visible"
       id="Arrow5-5-09"
       refX="0"
       refY="0"
       orient="auto-start-reverse"
       inkscape:stockid="Arrow5"
       markerWidth="5.8874264"
       markerHeight="6.6094756"
       viewBox="0 0 5.8874262 6.6094758"
       inkscape:isstock="true"
       inkscape:collect="always"
       preserveAspectRatio="xMidYMid"><path
         transform="scale(0.5)"
         style="fill:context-stroke;fill-rule:evenodd;stroke:context-stroke;stroke-width:1pt"
         d="m 6,0 c -3,1 -7,3 -9,5 0,0 0,-4 2,-5 -2,-1 -2,-5 -2,-5 2,2 6,4 9,5 z"
         id="path8893-9-6" /></marker><marker
       style="overflow:visible"
       id="Arrow5-5-89"
       refX="0"
       refY="0"
       orient="auto-start-reverse"
       inkscape:stockid="Arrow5"
       markerWidth="5.8874264"
       markerHeight="6.6094756"
       viewBox="0 0 5.8874262 6.6094758"
       inkscape:isstock="true"
       inkscape:collect="always"
       preserveAspectRatio="xMidYMid"><path
         transform="scale(0.5)"
         style="fill:context-stroke;fill-rule:evenodd;stroke:context-stroke;stroke-width:1pt"
         d="m 6,0 c -3,1 -7,3 -9,5 0,0 0,-4 2,-5 -2,-1 -2,-5 -2,-5 2,2 6,4 9,5 z"
         id="path8893-9-0" /></marker><marker
       style="overflow:visible"
       id="Arrow5-5-8-9"
       refX="0"
       refY="0"
       orient="auto-start-reverse"
       inkscape:stockid="Arrow5"
       markerWidth="5.8874264"
       markerHeight="6.6094756"
       viewBox="0 0 5.8874262 6.6094758"
       inkscape:isstock="true"
       inkscape:collect="always"
       preserveAspectRatio="xMidYMid"><path
         transform="scale(0.5)"
         style="fill:context-stroke;fill-rule:evenodd;stroke:context-stroke;stroke-width:1pt"
         d="m 6,0 c -3,1 -7,3 -9,5 0,0 0,-4 2,-5 -2,-1 -2,-5 -2,-5 2,2 6,4 9,5 z"
         id="path8893-9-9-4" /></marker><marker
       style="overflow:visible"
       id="Arrow5-5-8-9-6"
       refX="0"
       refY="0"
       orient="auto-start-reverse"
       inkscape:stockid="Arrow5"
       markerWidth="5.8874264"
       markerHeight="6.6094756"
       viewBox="0 0 5.8874262 6.6094758"
       inkscape:isstock="true"
       inkscape:collect="always"
       preserveAspectRatio="xMidYMid"><path
         transform="scale(0.5)"
         style="fill:context-stroke;fill-rule:evenodd;stroke:context-stroke;stroke-width:1pt"
         d="m 6,0 c -3,1 -7,3 -9,5 0,0 0,-4 2,-5 -2,-1 -2,-5 -2,-5 2,2 6,4 9,5 z"
         id="path8893-9-9-4-0" /></marker><marker
       style="overflow:visible"
       id="Arrow5-5-8-9-1"
       refX="0"
       refY="0"
       orient="auto-start-reverse"
       inkscape:stockid="Arrow5"
       markerWidth="5.8874264"
       markerHeight="6.6094756"
       viewBox="0 0 5.8874262 6.6094758"
       inkscape:isstock="true"
       inkscape:collect="always"
       preserveAspectRatio="xMidYMid"><path
         transform="scale(0.5)"
         style="fill:context-stroke;fill-rule:evenodd;stroke:context-stroke;stroke-width:1pt"
         d="m 6,0 c -3,1 -7,3 -9,5 0,0 0,-4 2,-5 -2,-1 -2,-5 -2,-5 2,2 6,4 9,5 z"
         id="path8893-9-9-4-07" /></marker><marker
       style="overflow:visible"
       id="Arrow5-5-8-9-7"
       refX="0"
       refY="0"
       orient="auto-start-reverse"
       inkscape:stockid="Arrow5"
       markerWidth="5.8874264"
       markerHeight="6.6094756"
       viewBox="0 0 5.8874262 6.6094758"
       inkscape:isstock="true"
       inkscape:collect="always"
       preserveAspectRatio="xMidYMid"><path
         transform="scale(0.5)"
         style="fill:context-stroke;fill-rule:evenodd;stroke:context-stroke;stroke-width:1pt"
         d="m 6,0 c -3,1 -7,3 -9,5 0,0 0,-4 2,-5 -2,-1 -2,-5 -2,-5 2,2 6,4 9,5 z"
         id="path8893-9-9-4-09" /></marker><marker
       style="overflow:visible"
       id="Arrow5-5-8-9-8"
       refX="0"
       refY="0"
       orient="auto-start-reverse"
       inkscape:stockid="Arrow5"
       markerWidth="5.8874264"
       markerHeight="6.6094756"
       viewBox="0 0 5.8874262 6.6094758"
       inkscape:isstock="true"
       inkscape:collect="always"
       preserveAspectRatio="xMidYMid"><path
         transform="scale(0.5)"
         style="fill:context-stroke;fill-rule:evenodd;stroke:context-stroke;stroke-width:1pt"
         d="m 6,0 c -3,1 -7,3 -9,5 0,0 0,-4 2,-5 -2,-1 -2,-5 -2,-5 2,2 6,4 9,5 z"
         id="path8893-9-9-4-2" /></marker><marker
       style="overflow:visible"
       id="Arrow5-5-8-9-74"
       refX="0"
       refY="0"
       orient="auto-start-reverse"
       inkscape:stockid="Arrow5"
       markerWidth="5.8874264"
       markerHeight="6.6094756"
       viewBox="0 0 5.8874262 6.6094758"
       inkscape:isstock="true"
       inkscape:collect="always"
       preserveAspectRatio="xMidYMid"><path
         transform="scale(0.5)"
         style="fill:context-stroke;fill-rule:evenodd;stroke:context-stroke;stroke-width:1pt"
         d="m 6,0 c -3,1 -7,3 -9,5 0,0 0,-4 2,-5 -2,-1 -2,-5 -2,-5 2,2 6,4 9,5 z"
         id="path8893-9-9-4-28" /></marker><marker
       style="overflow:visible"
       id="Arrow5-5-8-9-5"
       refX="0"
       refY="0"
       orient="auto-start-reverse"
       inkscape:stockid="Arrow5"
       markerWidth="5.8874264"
       markerHeight="6.6094756"
       viewBox="0 0 5.8874262 6.6094758"
       inkscape:isstock="true"
       inkscape:collect="always"
       preserveAspectRatio="xMidYMid"><path
         transform="scale(0.5)"
         style="fill:context-stroke;fill-rule:evenodd;stroke:context-stroke;stroke-width:1pt"
         d="m 6,0 c -3,1 -7,3 -9,5 0,0 0,-4 2,-5 -2,-1 -2,-5 -2,-5 2,2 6,4 9,5 z"
         id="path8893-9-9-4-1" /></marker><marker
       style="overflow:visible"
       id="Arrow5-5-8-9-0"
       refX="0"
       refY="0"
       orient="auto-start-reverse"
       inkscape:stockid="Arrow5"
       markerWidth="5.8874264"
       markerHeight="6.6094756"
       viewBox="0 0 5.8874262 6.6094758"
       inkscape:isstock="true"
       inkscape:collect="always"
       preserveAspectRatio="xMidYMid"><path
         transform="scale(0.5)"
         style="fill:context-stroke;fill-rule:evenodd;stroke:context-stroke;stroke-width:1pt"
         d="m 6,0 c -3,1 -7,3 -9,5 0,0 0,-4 2,-5 -2,-1 -2,-5 -2,-5 2,2 6,4 9,5 z"
         id="path8893-9-9-4-7" /></marker><marker
       style="overflow:visible"
       id="Arrow5-5-8-9-3"
       refX="0"
       refY="0"
       orient="auto-start-reverse"
       inkscape:stockid="Arrow5"
       markerWidth="5.8874264"
       markerHeight="6.6094756"
       viewBox="0 0 5.8874262 6.6094758"
       inkscape:isstock="true"
       inkscape:collect="always"
       preserveAspectRatio="xMidYMid"><path
         transform="scale(0.5)"
         style="fill:context-stroke;fill-rule:evenodd;stroke:context-stroke;stroke-width:1pt"
         d="m 6,0 c -3,1 -7,3 -9,5 0,0 0,-4 2,-5 -2,-1 -2,-5 -2,-5 2,2 6,4 9,5 z"
         id="path8893-9-9-4-20" /></marker></defs><g
     inkscape:groupmode="layer"
     id="layer2"
     inkscape:label="Vectors"
     transform="translate(308.11208,552.36205)"><path
       style="fill:none;fill-opacity:1;stroke:#882e66;stroke-width:2.936;stroke-dasharray:none;stroke-opacity:1;marker-end:url(#Arrow5)"
       d="m -254.52045,-406.85657 32.59868,32.59868"
       id="path1" /><path
       style="fill:none;fill-opacity:1;stroke:#882e66;stroke-width:2.936;stroke-dasharray:none;stroke-opacity:1;marker-end:url(#Arrow5)"
       d="m -195.68562,-344.73188 32.59868,32.59868"
       id="path1-1" /><path
       style="fill:none;fill-opacity:1;stroke:#882e66;stroke-width:2.936;stroke-dasharray:none;stroke-opacity:1;marker-end:url(#Arrow5)"
       d="m -137.15991,-295.13346 36.1396,28.62302"
       id="path1-7" /><path
       style="fill:none;fill-opacity:1;stroke:#882e66;stroke-width:2.936;stroke-dasharray:none;stroke-opacity:1;marker-end:url(#Arrow5)"
       d="m 217.96967,-486.55459 -44.80764,-10.84542"
       id="path1-3" /><path
       style="fill:none;fill-opacity:1;stroke:#882e66;stroke-width:2.936;stroke-dasharray:none;stroke-opacity:1;marker-end:url(#Arrow5)"
       d="m 292.94983,-451.68411 -41.99202,-19.02678"
       id="path1-1-7" /><path
       style="fill:none;fill-opacity:1;stroke:#882e66;stroke-width:2.936;stroke-dasharray:none;stroke-opacity:1;marker-end:url(#Arrow5)"
       d="m 358.67255,-413.87556 -39.05338,-24.4986"
       id="path1-7-1" /><path
       style="fill:none;fill-opacity:1;stroke:#882e66;stroke-width:2.936;stroke-dasharray:none;stroke-opacity:1;marker-end:url(#Arrow5)"
       d="m 420.86792,-372.35573 -39.05338,-24.4986"
       id="path1-7-1-6" /><path
       style="fill:none;fill-opacity:1;stroke:#882e66;stroke-width:2.936;stroke-dasharray:none;stroke-opacity:1;marker-end:url(#Arrow5)"
       d="m 488.1602,-321.08692 -36.73622,-27.85316"
       id="path1-7-1-6-1" /><path
       style="fill:none;fill-opacity:1;stroke:#882e66;stroke-width:2.936;stroke-dasharray:none;stroke-opacity:1;marker-end:url(#Arrow5)"
       d="m -59.307245,-239.73618 39.8471,23.18526"
       id="path1-8" /><path
       style="fill:none;fill-opacity:1;stroke:#882e66;stroke-width:2.936;stroke-dasharray:none;stroke-opacity:1;marker-end:url(#Arrow5)"
       d="m 243.79502,-366.75635 -37.335,-27.04524"
       id="path1-8-5" /><path
       style="fill:none;fill-opacity:1;stroke:#882e66;stroke-width:2.936;stroke-dasharray:none;stroke-opacity:1;marker-end:url(#Arrow5)"
       d="m 177.36454,-410.8854 -35.56187,-19.73106"
       id="path1-8-5-5"
       sodipodi:nodetypes="cc" /><path
       style="fill:none;fill-opacity:1;stroke:#882e66;stroke-width:2.936;stroke-dasharray:none;stroke-opacity:1;marker-end:url(#Arrow5)"
       d="M 14.594461,-434.6017 3.2806907,-417.79274"
       id="path1-8-5-0"
       sodipodi:nodetypes="cc" /><path
       style="fill:none;fill-opacity:1;stroke:#882e66;stroke-width:2.936;stroke-dasharray:none;stroke-opacity:1;marker-end:url(#Arrow5)"
       d="m -35.093396,-470.13863 -11.31377,16.80896"
       id="path1-8-5-0-7"
       sodipodi:nodetypes="cc" /><path
       style="fill:none;fill-opacity:1;stroke:#882e66;stroke-width:2.936;stroke-dasharray:none;stroke-opacity:1;marker-end:url(#Arrow5)"
       d="m -3.2299881,-376.67781 10.2600747,17.47208"
       id="path1-8-5-0-2"
       sodipodi:nodetypes="cc" /><path
       style="fill:none;fill-opacity:1;stroke:#882e66;stroke-width:2.936;stroke-dasharray:none;stroke-opacity:1;marker-end:url(#Arrow5)"
       d="m 26.181362,-331.60743 15.554555,12.98456"
       id="path1-8-5-0-2-5"
       sodipodi:nodetypes="cc" /><path
       style="fill:none;fill-opacity:1;stroke:#882e66;stroke-width:2.936;stroke-dasharray:none;stroke-opacity:1;marker-end:url(#Arrow5)"
       d="m -48.748727,-383.18732 10.260075,17.47208"
       id="path1-8-5-0-2-8"
       sodipodi:nodetypes="cc" /><path
       style="fill:none;fill-opacity:1;stroke:#882e66;stroke-width:2.936;stroke-dasharray:none;stroke-opacity:1;marker-end:url(#Arrow5)"
       d="m -56.905398,-427.06272 0.591621,20.25322"
       id="path1-8-5-0-2-8-9"
       sodipodi:nodetypes="cc" /><path
       style="fill:none;fill-opacity:1;stroke:#882e66;stroke-width:2.936;stroke-dasharray:none;stroke-opacity:1;marker-end:url(#Arrow5)"
       d="m -19.337377,-338.11694 15.5545549,12.98456"
       id="path1-8-5-0-2-5-2"
       sodipodi:nodetypes="cc" /><path
       style="fill:none;fill-opacity:1;stroke:#882e66;stroke-width:2.936;stroke-dasharray:none;stroke-opacity:1;marker-end:url(#Arrow5-2)"
       d="m -233.47587,-254.39438 0.81538,0.84967"
       id="path1-8-5-0-2-5-2-6"
       sodipodi:nodetypes="cc" /><path
       style="fill:none;fill-opacity:1;stroke:#882e66;stroke-width:2.936;stroke-dasharray:none;stroke-opacity:1;marker-end:url(#Arrow5-2-8)"
       d="m -272.57813,-291.41544 0.81538,0.84967"
       id="path1-8-5-0-2-5-2-6-7"
       sodipodi:nodetypes="cc" /><path
       style="fill:none;fill-opacity:1;stroke:#882e66;stroke-width:2.936;stroke-dasharray:none;stroke-opacity:1;marker-end:url(#Arrow5-2-9)"
       d="m -273.20503,-171.05109 0.81538,0.84967"
       id="path1-8-5-0-2-5-2-6-3"
       sodipodi:nodetypes="cc" /><path
       style="fill:none;fill-opacity:1;stroke:#882e66;stroke-width:2.936;stroke-dasharray:none;stroke-opacity:1;marker-end:url(#Arrow5-2-96)"
       d="m -275.08572,-221.8298 0.81538,0.84967"
       id="path1-8-5-0-2-5-2-6-38"
       sodipodi:nodetypes="cc" /><path
       style="fill:none;fill-opacity:1;stroke:#882e66;stroke-width:2.936;stroke-dasharray:none;stroke-opacity:1;marker-end:url(#Arrow5-2-7)"
       d="m -204.24629,-169.7973 0.81538,0.84967"
       id="path1-8-5-0-2-5-2-6-0"
       sodipodi:nodetypes="cc" /><path
       style="fill:none;fill-opacity:1;stroke:#882e66;stroke-width:2.936;stroke-dasharray:none;stroke-opacity:1;marker-end:url(#Arrow5-2-76)"
       d="m -63.82122,-139.07931 0.81538,0.84967"
       id="path1-8-5-0-2-5-2-6-1"
       sodipodi:nodetypes="cc" /><path
       style="fill:none;fill-opacity:1;stroke:#882e66;stroke-width:2.936;stroke-dasharray:none;stroke-opacity:1;marker-end:url(#Arrow5-2-71)"
       d="m -137.16824,-192.36561 0.81538,0.84967"
       id="path1-8-5-0-2-5-2-6-39"
       sodipodi:nodetypes="cc" /><path
       style="fill:none;fill-opacity:1;stroke:#882e66;stroke-width:2.936;stroke-dasharray:none;stroke-opacity:1;marker-end:url(#Arrow5-2-91)"
       d="m -202.3656,-213.05323 0.81538,0.84967"
       id="path1-8-5-0-2-5-2-6-5"
       sodipodi:nodetypes="cc" /><path
       style="fill:none;fill-opacity:1;stroke:#882e66;stroke-width:2.936;stroke-dasharray:none;stroke-opacity:1;marker-end:url(#Arrow5-2-4)"
       d="m -165.37864,-253.80158 0.81538,0.84967"
       id="path1-8-5-0-2-5-2-6-2"
       sodipodi:nodetypes="cc" /><path
       style="fill:none;fill-opacity:1;stroke:#882e66;stroke-width:2.936;stroke-dasharray:none;stroke-opacity:1;marker-end:url(#Arrow5-2-89)"
       d="m -134.66065,-140.96001 0.81538,0.84967"
       id="path1-8-5-0-2-5-2-6-55"
       sodipodi:nodetypes="cc" /><path
       style="fill:none;fill-opacity:1;stroke:#882e66;stroke-width:2.936;stroke-dasharray:none;stroke-opacity:1;marker-end:url(#Arrow5-2-3)"
       d="m -230.57599,-131.55654 0.81538,0.84967"
       id="path1-8-5-0-2-5-2-6-8"
       sodipodi:nodetypes="cc" /><path
       style="fill:none;fill-opacity:1;stroke:#882e66;stroke-width:2.936;stroke-dasharray:none;stroke-opacity:1;marker-end:url(#Arrow5-2-2)"
       d="m 32.72101,-125.91446 0.81538,0.84967"
       id="path1-8-5-0-2-5-2-6-36"
       sodipodi:nodetypes="cc" /><path
       style="fill:none;fill-opacity:1;stroke:#882e66;stroke-width:2.936;stroke-dasharray:none;stroke-opacity:1;marker-end:url(#Arrow5-2-1)"
       d="m -66.32881,-165.40901 0.81538,0.84967"
       id="path1-8-5-0-2-5-2-6-25"
       sodipodi:nodetypes="cc" /><path
       style="fill:none;fill-opacity:1;stroke:#882e66;stroke-width:2.936;stroke-dasharray:none;stroke-opacity:1;marker-end:url(#Arrow5-2-892)"
       d="m -120.24201,-217.44152 0.81538,0.84967"
       id="path1-8-5-0-2-5-2-6-4"
       sodipodi:nodetypes="cc" /><path
       style="fill:none;fill-opacity:1;stroke:#882e66;stroke-width:2.936;stroke-dasharray:none;stroke-opacity:1;marker-end:url(#Arrow5-2-892-9)"
       d="m 509.16321,-469.45436 -1.53549,-1.18775"
       id="path1-8-5-0-2-5-2-6-4-6"
       sodipodi:nodetypes="cc" /><path
       style="fill:none;fill-opacity:1;stroke:#882e66;stroke-width:2.936;stroke-dasharray:none;stroke-opacity:1;marker-end:url(#Arrow5-2-892-9-6)"
       d="m 519.31433,-385.01248 -1.53549,-1.18775"
       id="path1-8-5-0-2-5-2-6-4-6-4"
       sodipodi:nodetypes="cc" /><path
       style="fill:none;fill-opacity:1;stroke:#882e66;stroke-width:2.936;stroke-dasharray:none;stroke-opacity:1;marker-end:url(#Arrow5-2-892-9-3)"
       d="m 467.45015,-402.30054 -1.53548,-1.18775"
       id="path1-8-5-0-2-5-2-6-4-6-8"
       sodipodi:nodetypes="cc" /><path
       style="fill:none;fill-opacity:1;stroke:#882e66;stroke-width:2.936;stroke-dasharray:none;stroke-opacity:1;marker-end:url(#Arrow5-2-892-9-35)"
       d="m 394.30837,-466.57665 -1.53549,-1.18775"
       id="path1-8-5-0-2-5-2-6-4-6-2"
       sodipodi:nodetypes="cc" /><path
       style="fill:none;fill-opacity:1;stroke:#882e66;stroke-width:2.936;stroke-dasharray:none;stroke-opacity:1;marker-end:url(#Arrow5-2-892-9-9)"
       d="m 340.22777,-504.92068 -1.53549,-1.18775"
       id="path1-8-5-0-2-5-2-6-4-6-82"
       sodipodi:nodetypes="cc" /><path
       style="fill:none;fill-opacity:1;stroke:#882e66;stroke-width:2.936;stroke-dasharray:none;stroke-opacity:1;marker-end:url(#Arrow5-2-892-9-7)"
       d="m 287.92031,-534.1774 -1.53549,-1.18775"
       id="path1-8-5-0-2-5-2-6-4-6-3"
       sodipodi:nodetypes="cc" /><path
       style="fill:none;fill-opacity:1;stroke:#882e66;stroke-width:2.936;stroke-dasharray:none;stroke-opacity:1;marker-end:url(#Arrow5-2-892-9-70)"
       d="m 418.24568,-522.20874 -1.53549,-1.18775"
       id="path1-8-5-0-2-5-2-6-4-6-87"
       sodipodi:nodetypes="cc" /><path
       style="fill:none;fill-opacity:1;stroke:#882e66;stroke-width:2.936;stroke-dasharray:none;stroke-opacity:1;marker-end:url(#Arrow5-2-892-9-0)"
       d="m 461.02254,-474.55576 -1.53549,-1.18775"
       id="path1-8-5-0-2-5-2-6-4-6-85"
       sodipodi:nodetypes="cc" /><path
       style="fill:none;fill-opacity:1;stroke:#882e66;stroke-width:2.936;stroke-dasharray:none;stroke-opacity:1;marker-end:url(#Arrow5-2-892-9-37)"
       d="m 511.55687,-527.74978 -1.53549,-1.18776"
       id="path1-8-5-0-2-5-2-6-4-6-9"
       sodipodi:nodetypes="cc" /><path
       style="fill:none;fill-opacity:1;stroke:#882e66;stroke-width:2.936;stroke-dasharray:none;stroke-opacity:1;marker-end:url(#Arrow5)"
       d="m 56.012306,-449.00647 -23.504171,2.83888"
       id="path1-8-5-0-9"
       sodipodi:nodetypes="cc" /><path
       style="fill:none;fill-opacity:1;stroke:#882e66;stroke-width:2.936;stroke-dasharray:none;stroke-opacity:1;marker-end:url(#Arrow5)"
       d="m 50.932282,-502.04466 -23.504171,2.83888"
       id="path1-8-5-0-9-9"
       sodipodi:nodetypes="cc" /><path
       style="fill:none;fill-opacity:1;stroke:#882e66;stroke-width:2.936;stroke-dasharray:none;stroke-opacity:1;marker-end:url(#Arrow5)"
       d="m 16.607144,-300.14051 39.479124,23.80642"
       id="path1-8-5-57" /><path
       style="fill:none;fill-opacity:1;stroke:#882e66;stroke-width:2.936;stroke-dasharray:none;stroke-opacity:1;marker-end:url(#Arrow5)"
       d="m 90.668268,-253.37431 42.328982,18.26482"
       id="path1-8-5-57-9" /><path
       style="fill:none;fill-opacity:1;stroke:#882e66;stroke-width:2.936;stroke-dasharray:none;stroke-opacity:1;marker-end:url(#Arrow5)"
       d="m 111.88761,-442.51817 -30.499174,-6.97482"
       id="path1-8-5-2"
       sodipodi:nodetypes="cc" /><path
       style="fill:none;fill-opacity:1;stroke:#882e66;stroke-width:2.936;stroke-dasharray:none;stroke-opacity:1;marker-end:url(#Arrow5)"
       d="m 137.7723,-504.74808 -31.18938,-2.4639"
       id="path1-8-5-2-8"
       sodipodi:nodetypes="cc" /><path
       style="fill:none;fill-opacity:1;stroke:#882e66;stroke-width:2.936;stroke-dasharray:none;stroke-opacity:1;marker-end:url(#Arrow5)"
       d="m 44.673644,-189.75431 43.704418,14.67214"
       id="path1-76" /><path
       style="fill:none;fill-opacity:1;stroke:#882e66;stroke-width:2.936;stroke-dasharray:none;stroke-opacity:1;marker-end:url(#Arrow5)"
       d="m 146.17566,-162.45508 46.08432,1.25804"
       id="path1-0" /><path
       style="fill:none;fill-opacity:1;stroke:#882e66;stroke-width:2.936;stroke-dasharray:none;stroke-opacity:1;marker-end:url(#Arrow5)"
       d="m 178.2044,-218.37915 32.78581,-0.29346"
       id="path1-0-8"
       sodipodi:nodetypes="cc" /><path
       style="fill:none;fill-opacity:1;stroke:#882e66;stroke-width:2.936;stroke-dasharray:none;stroke-opacity:1;marker-end:url(#Arrow5)"
       d="m 239.35034,-164.97677 28.65919,-6.80623"
       id="path1-4"
       sodipodi:nodetypes="cc" /><path
       style="fill:none;fill-opacity:1;stroke:#882e66;stroke-width:2.936;stroke-dasharray:none;stroke-opacity:1;marker-end:url(#Arrow5)"
       d="m 304.49226,-187.06062 15.40102,-17.22664"
       id="path1-5"
       sodipodi:nodetypes="cc" /><path
       style="fill:none;fill-opacity:1;stroke:#882e66;stroke-width:2.936;stroke-dasharray:none;stroke-opacity:1;marker-end:url(#Arrow5)"
       d="m 250.37349,-232.09077 15.40102,-17.22664"
       id="path1-5-8"
       sodipodi:nodetypes="cc" /><path
       style="fill:none;fill-opacity:1;stroke:#882e66;stroke-width:2.936;stroke-dasharray:none;stroke-opacity:1;marker-end:url(#Arrow5)"
       d="m 329.42835,-232.98804 1.09844,-18.8074"
       id="path1-5-2"
       sodipodi:nodetypes="cc" /><path
       style="fill:none;fill-opacity:1;stroke:#882e66;stroke-width:2.936;stroke-dasharray:none;stroke-opacity:1;marker-end:url(#Arrow5)"
       d="m 319.79644,-287.50395 -8.6792,-12.05175"
       id="path1-5-2-9"
       sodipodi:nodetypes="cc" /><path
       style="fill:none;fill-opacity:1;stroke:#882e66;stroke-width:2.936;stroke-dasharray:none;stroke-opacity:1;marker-end:url(#Arrow5)"
       d="m 291.54361,-324.06583 -15.89351,-17.9923"
       id="path1-5-2-9-5"
       sodipodi:nodetypes="cc" /><path
       style="fill:none;fill-opacity:1;stroke:#882e66;stroke-width:2.936;stroke-dasharray:none;stroke-opacity:1;marker-end:url(#Arrow5)"
       d="m 58.012201,-395.48319 -7.324218,13.04105"
       id="path1-8-5-0-26"
       sodipodi:nodetypes="cc" /><path
       style="fill:none;fill-opacity:1;stroke:#882e66;stroke-width:2.936;stroke-dasharray:none;stroke-opacity:1;marker-end:url(#Arrow5)"
       d="m 90.360416,-380.54571 -5.772725,10.60299"
       id="path1-8-5-0-26-8"
       sodipodi:nodetypes="cc" /><path
       style="fill:none;fill-opacity:1;stroke:#882e66;stroke-width:2.936;stroke-dasharray:none;stroke-opacity:1;marker-end:url(#Arrow5)"
       d="m 180.20963,-361.17773 -15.76355,-12.73"
       id="path1-8-5-0-6"
       sodipodi:nodetypes="cc" /><path
       style="fill:none;fill-opacity:1;stroke:#882e66;stroke-width:2.936;stroke-dasharray:none;stroke-opacity:1;marker-end:url(#Arrow5)"
       d="m 198.78933,-333.06198 -4.65823,-12.14659"
       id="path1-8-5-0-96"
       sodipodi:nodetypes="cc" /><path
       style="fill:none;fill-opacity:1;stroke:#882e66;stroke-width:2.936;stroke-dasharray:none;stroke-opacity:1;marker-end:url(#Arrow5)"
       d="m 50.066407,-360.91396 10.658482,17.23192"
       id="path1-8-5-0-1"
       sodipodi:nodetypes="cc" /><path
       style="fill:none;fill-opacity:1;stroke:#882e66;stroke-width:2.936;stroke-dasharray:none;stroke-opacity:1;marker-end:url(#Arrow5)"
       d="m 87.027567,-318.69836 18.552633,8.14508"
       id="path1-8-5-0-4"
       sodipodi:nodetypes="cc" /><path
       style="fill:none;fill-opacity:1;stroke:#882e66;stroke-width:2.936;stroke-dasharray:none;stroke-opacity:1;marker-end:url(#Arrow5)"
       d="m 124.63721,-300.92019 19.81289,4.24168"
       id="path1-8-5-0-92"
       sodipodi:nodetypes="cc" /><path
       style="fill:none;fill-opacity:1;stroke:#882e66;stroke-width:2.936;stroke-dasharray:none;stroke-opacity:1;marker-end:url(#Arrow5)"
       d="m 132.86871,-385.341 -18.2614,-2.69019"
       id="path1-8-5-0-92-3"
       sodipodi:nodetypes="cc" /><path
       style="fill:none;fill-opacity:1;stroke:#882e66;stroke-width:2.936;stroke-dasharray:none;stroke-opacity:1;marker-end:url(#Arrow5)"
       d="m 189.06434,-297.37519 7.23393,-4.92812"
       id="path1-8-5-0-92-3-6"
       sodipodi:nodetypes="cc" /><path
       style="fill:none;fill-opacity:1;stroke:#882e66;stroke-width:2.936;stroke-dasharray:none;stroke-opacity:1;marker-end:url(#Arrow5-5)"
       d="m 437.3866,-146.21979 2.21875,-2.26381"
       id="path1-8-5-0-92-3-6-9"
       sodipodi:nodetypes="cc" /><path
       style="fill:none;fill-opacity:1;stroke:#882e66;stroke-width:2.936;stroke-dasharray:none;stroke-opacity:1;marker-end:url(#Arrow5-5-5)"
       d="m 331.84,-119.40755 2.21875,-2.26381"
       id="path1-8-5-0-92-3-6-9-6"
       sodipodi:nodetypes="cc" /><path
       style="fill:none;fill-opacity:1;stroke:#882e66;stroke-width:2.936;stroke-dasharray:none;stroke-opacity:1;marker-end:url(#Arrow5-5-2)"
       d="m 421.38328,-173.48814 2.21875,-2.26381"
       id="path1-8-5-0-92-3-6-9-2"
       sodipodi:nodetypes="cc" /><path
       style="fill:none;fill-opacity:1;stroke:#882e66;stroke-width:2.936;stroke-dasharray:none;stroke-opacity:1;marker-end:url(#Arrow5-5-8)"
       d="m 426.70268,-249.73291 2.21875,-2.26381"
       id="path1-8-5-0-92-3-6-9-1"
       sodipodi:nodetypes="cc" /><path
       style="fill:none;fill-opacity:1;stroke:#882e66;stroke-width:2.936;stroke-dasharray:none;stroke-opacity:1;marker-end:url(#Arrow5-5-8-9)"
       d="m -183.2555,-509.49708 -1.7708,1.39328"
       id="path1-8-5-0-92-3-6-9-1-0"
       sodipodi:nodetypes="cc" /><path
       style="fill:none;fill-opacity:1;stroke:#882e66;stroke-width:2.936;stroke-dasharray:none;stroke-opacity:1;marker-end:url(#Arrow5-5-8-9-6)"
       d="m -253.49274,-529.07676 -1.7708,1.39328"
       id="path1-8-5-0-92-3-6-9-1-0-7"
       sodipodi:nodetypes="cc" /><path
       style="fill:none;fill-opacity:1;stroke:#882e66;stroke-width:2.936;stroke-dasharray:none;stroke-opacity:1;marker-end:url(#Arrow5-5-8-9-1)"
       d="m -253.17929,-493.3436 -1.7708,1.39328"
       id="path1-8-5-0-92-3-6-9-1-0-4"
       sodipodi:nodetypes="cc" /><path
       style="fill:none;fill-opacity:1;stroke:#882e66;stroke-width:2.936;stroke-dasharray:none;stroke-opacity:1;marker-end:url(#Arrow5-5-8-9-7)"
       d="m -190.48953,-440.37075 -1.7708,1.39328"
       id="path1-8-5-0-92-3-6-9-1-0-3"
       sodipodi:nodetypes="cc" /><path
       style="fill:none;fill-opacity:1;stroke:#882e66;stroke-width:2.936;stroke-dasharray:none;stroke-opacity:1;marker-end:url(#Arrow5-5-8-9-8)"
       d="m -145.3529,-425.3252 -1.7708,1.39328"
       id="path1-8-5-0-92-3-6-9-1-0-1"
       sodipodi:nodetypes="cc" /><path
       style="fill:none;fill-opacity:1;stroke:#882e66;stroke-width:2.936;stroke-dasharray:none;stroke-opacity:1;marker-end:url(#Arrow5-5-8-9-74)"
       d="m -103.35076,-469.83493 -1.7708,1.39328"
       id="path1-8-5-0-92-3-6-9-1-0-2"
       sodipodi:nodetypes="cc" /><path
       style="fill:none;fill-opacity:1;stroke:#882e66;stroke-width:2.936;stroke-dasharray:none;stroke-opacity:1;marker-end:url(#Arrow5-5-8-9-5)"
       d="m -81.72279,-529.07676 -1.7708,1.39328"
       id="path1-8-5-0-92-3-6-9-1-0-5"
       sodipodi:nodetypes="cc" /><path
       style="fill:none;fill-opacity:1;stroke:#882e66;stroke-width:2.936;stroke-dasharray:none;stroke-opacity:1;marker-end:url(#Arrow5-5-8-9-0)"
       d="m -133.12839,-538.79367 -1.7708,1.39328"
       id="path1-8-5-0-92-3-6-9-1-0-73"
       sodipodi:nodetypes="cc" /><path
       style="fill:none;fill-opacity:1;stroke:#882e66;stroke-width:2.936;stroke-dasharray:none;stroke-opacity:1;marker-end:url(#Arrow5-5-8-9-3)"
       d="m -148.80083,-482.37289 -1.7708,1.39328"
       id="path1-8-5-0-92-3-6-9-1-0-14"
       sodipodi:nodetypes="cc" /><path
       style="fill:none;fill-opacity:1;stroke:#882e66;stroke-width:2.936;stroke-dasharray:none;stroke-opacity:1;marker-end:url(#Arrow5-5-0)"
       d="m 508.26686,-208.95083 2.21875,-2.26381"
       id="path1-8-5-0-92-3-6-9-7"
       sodipodi:nodetypes="cc" /><path
       style="fill:none;fill-opacity:1;stroke:#882e66;stroke-width:2.936;stroke-dasharray:none;stroke-opacity:1;marker-end:url(#Arrow5-5-3)"
       d="m 491.42208,-112.31501 2.21875,-2.26381"
       id="path1-8-5-0-92-3-6-9-3"
       sodipodi:nodetypes="cc" /><path
       style="fill:none;fill-opacity:1;stroke:#882e66;stroke-width:2.936;stroke-dasharray:none;stroke-opacity:1;marker-end:url(#Arrow5-5-09)"
       d="m 410.74447,-113.20158 2.21875,-2.26381"
       id="path1-8-5-0-92-3-6-9-36"
       sodipodi:nodetypes="cc" /><path
       style="fill:none;fill-opacity:1;stroke:#882e66;stroke-width:2.936;stroke-dasharray:none;stroke-opacity:1;marker-end:url(#Arrow5-5-89)"
       d="m 391.24,-185.90008 2.21875,-2.26381"
       id="path1-8-5-0-92-3-6-9-31"
       sodipodi:nodetypes="cc" /></g></svg>
